name Visual3d_SIMM_grf.mot
datacolumns 19
datarows 48
range 1.740000 2.210000
endheader
time	ground_force_vx	ground_force_vy	ground_force_vz	ground_force_px	ground_force_py	ground_force_pz	l_ground_force_vx	l_ground_force_vy	l_ground_force_vz	l_ground_force_px	l_ground_force_py	l_ground_force_pz	ground_torque_x	ground_torque_y	ground_torque_z	l_ground_torque_x	l_ground_torque_y	l_ground_torque_z
1.740000	-36.360992	292.617004	24.061716	-0.027692	-0.000024	0.163570	7.922233	99.549538	4.950940	-0.320837	0.001119	0.343886	-0.000376	-0.035803	0.000571	-0.000091	0.217038	-0.000516
1.750000	-39.108540	311.155060	21.185350	-0.027148	-0.000411	0.162787	5.211784	81.354568	7.354043	-0.320092	0.001012	0.336496	-0.001195	-0.113774	0.001813	-0.000010	0.024843	-0.000059
1.760000	-40.550400	320.218323	16.975679	-0.026691	-0.000661	0.162057	2.631435	64.030731	9.387171	-0.319902	0.001233	0.327546	-0.002091	-0.198980	0.003171	0.000079	-0.188137	0.000448
1.770000	-40.734978	320.097870	11.774202	-0.026224	-0.000750	0.161437	0.452502	48.425110	10.705786	-0.320426	0.001538	0.315885	-0.003066	-0.291834	0.004651	0.000170	-0.405665	0.000965
1.780000	-39.827431	311.930328	6.076706	-0.025655	-0.000686	0.160899	-1.152472	35.102966	11.025178	-0.322097	0.001739	0.300051	-0.004099	-0.390152	0.006218	0.000258	-0.615449	0.001464
1.790000	-38.104733	297.444153	0.397454	-0.024921	-0.000496	0.160365	-2.147463	24.281214	10.267202	-0.325851	0.001737	0.277828	-0.005184	-0.493407	0.007864	0.000340	-0.812772	0.001934
1.800000	-35.932892	278.724365	-4.855887	-0.023988	-0.000214	0.159732	0.000000	0.000000	0.000000	0.000000	0.000000	0.000000	-0.006358	-0.605089	0.009644	0.000000	0.000000	0.000000
1.810000	-33.717339	258.019531	-9.430853	-0.022827	0.000125	0.158898	0.000000	0.000000	0.000000	0.000000	0.000000	0.000000	-0.007690	-0.731864	0.011664	0.000000	0.000000	0.000000
1.820000	-31.807722	237.539444	-13.211802	-0.021403	0.000491	0.157780	0.000000	0.000000	0.000000	0.000000	0.000000	0.000000	-0.009242	-0.879633	0.014019	0.000000	0.000000	0.000000
1.830000	-30.422215	219.249695	-16.167086	-0.019680	0.000857	0.156334	0.000000	0.000000	0.000000	0.000000	0.000000	0.000000	-0.011037	-1.050459	0.016742	0.000000	0.000000	0.000000
1.840000	-29.629347	204.679733	-18.332405	-0.017674	0.001203	0.154575	0.000000	0.000000	0.000000	0.000000	0.000000	0.000000	-0.013034	-1.240489	0.019771	0.000000	0.000000	0.000000
1.850000	-29.373762	194.775024	-19.823736	-0.015517	0.001510	0.152593	0.000000	0.000000	0.000000	0.000000	0.000000	0.000000	-0.015116	-1.438682	0.022929	0.000000	0.000000	0.000000
1.860000	-29.525059	189.880295	-20.823988	-0.013436	0.001765	0.150539	0.000000	0.000000	0.000000	0.000000	0.000000	0.000000	-0.017129	-1.630238	0.025982	0.000000	0.000000	0.000000
1.870000	-29.922306	189.826111	-21.540094	-0.011653	0.001958	0.148594	0.000000	0.000000	0.000000	0.000000	0.000000	0.000000	-0.018928	-1.801508	0.028712	0.000000	0.000000	0.000000
1.880000	-30.410578	194.024826	-22.157625	-0.010282	0.002091	0.146895	0.000000	0.000000	0.000000	0.000000	0.000000	0.000000	-0.020407	-1.942259	0.030955	0.000000	0.000000	0.000000
1.890000	-30.864799	201.584320	-22.810320	-0.009291	0.002174	0.145505	0.000000	0.000000	0.000000	0.000000	0.000000	0.000000	-0.021502	-2.046491	0.032616	0.000000	0.000000	0.000000
1.900000	-31.210716	211.433411	-23.565617	-0.008552	0.002218	0.144407	0.000000	0.000000	0.000000	0.000000	0.000000	0.000000	-0.022189	-2.111827	0.033658	0.000000	0.000000	0.000000
1.910000	-31.438847	222.453232	-24.434752	-0.007920	0.002235	0.143528	0.000000	0.000000	0.000000	0.000000	0.000000	0.000000	-0.022478	-2.139327	0.034096	0.000000	0.000000	0.000000
1.920000	-31.586922	233.601410	-25.384520	-0.007294	0.002232	0.142758	0.000000	0.000000	0.000000	0.000000	0.000000	0.000000	-0.022408	-2.132666	0.033990	0.000000	0.000000	0.000000
1.930000	-31.691162	244.008636	-26.345125	-0.006631	0.002214	0.141993	0.000000	0.000000	0.000000	0.000000	0.000000	0.000000	-0.022031	-2.096840	0.033419	0.000000	0.000000	0.000000
1.940000	-31.746855	253.041931	-27.242882	-0.005924	0.002189	0.141153	0.000000	0.000000	0.000000	0.000000	0.000000	0.000000	-0.021390	-2.035808	0.032446	0.000000	0.000000	0.000000
1.950000	-31.704708	260.332489	-28.020472	-0.005179	0.002163	0.140195	0.000000	0.000000	0.000000	0.000000	0.000000	0.000000	-0.020507	-1.951740	0.031106	0.000000	0.000000	0.000000
1.960000	-31.499569	265.735382	-28.638811	-0.004421	0.002145	0.139103	0.000000	0.000000	0.000000	0.000000	0.000000	0.000000	-0.019389	-1.845369	0.029411	0.000000	0.000000	0.000000
1.970000	-31.083889	269.278503	-29.070705	-0.003669	0.002149	0.137873	0.000000	0.000000	0.000000	0.000000	0.000000	0.000000	-0.018035	-1.716478	0.027357	0.000000	0.000000	0.000000
1.980000	-30.454412	271.114960	-29.298834	-0.002923	0.002183	0.136503	0.000000	0.000000	0.000000	0.000000	0.000000	0.000000	-0.016455	-1.566107	0.024960	0.000000	0.000000	0.000000
1.990000	-29.653086	271.453308	-29.316959	-0.002184	0.002246	0.134976	0.000000	0.000000	0.000000	0.000000	0.000000	0.000000	-0.014686	-1.397711	0.022276	0.000000	0.000000	0.000000
2.000000	-28.747303	270.516418	-29.133982	-0.001466	0.002324	0.133261	0.000000	0.000000	0.000000	0.000000	0.000000	0.000000	-0.012782	-1.216495	0.019388	0.000000	0.000000	0.000000
2.010000	-27.806011	268.536865	-28.778517	-0.000784	0.002400	0.131334	0.000000	0.000000	0.000000	0.000000	0.000000	0.000000	-0.010804	-1.028242	0.016388	0.000000	0.000000	0.000000
2.020000	-26.884205	265.759644	-28.296055	-0.000152	0.002452	0.129187	0.000000	0.000000	0.000000	0.000000	0.000000	0.000000	-0.008809	-0.838444	0.013363	0.000000	0.000000	0.000000
2.030000	-26.011023	262.455719	-27.740753	0.000423	0.002464	0.126836	0.000000	0.000000	0.000000	0.000000	0.000000	0.000000	-0.006831	-0.650125	0.010362	0.000000	0.000000	0.000000
2.040000	-25.190474	258.906403	-27.175249	0.000920	0.002433	0.124318	0.000000	0.000000	0.000000	0.000000	0.000000	0.000000	-0.004869	-0.463385	0.007385	0.000000	0.000000	0.000000
2.050000	-24.411743	255.390869	-26.670183	0.001300	0.002373	0.121684	0.000000	0.000000	0.000000	0.000000	0.000000	0.000000	-0.002912	-0.277177	0.004418	0.000000	0.000000	0.000000
2.060000	-23.660389	252.145462	-26.302004	0.001526	0.002313	0.118993	0.000000	0.000000	0.000000	0.000000	0.000000	0.000000	-0.000940	-0.089512	0.001427	0.000000	0.000000	0.000000
2.070000	-22.924784	249.298569	-26.139950	0.001579	0.002277	0.116314	0.000000	0.000000	0.000000	0.000000	0.000000	0.000000	0.001059	0.100792	-0.001606	0.000000	0.000000	0.000000
2.080000	-22.200678	246.828308	-26.230761	0.001455	0.002273	0.113711	0.000000	0.000000	0.000000	0.000000	0.000000	0.000000	0.003076	0.292764	-0.004666	0.000000	0.000000	0.000000
2.090000	-21.493198	244.572479	-26.592520	0.001151	0.002294	0.111234	0.000000	0.000000	0.000000	0.000000	0.000000	0.000000	0.005099	0.485256	-0.007734	0.000000	0.000000	0.000000
2.100000	-20.817924	242.279800	-27.201555	0.000677	0.002328	0.108916	0.000000	0.000000	0.000000	0.000000	0.000000	0.000000	0.007107	0.676401	-0.010780	0.000000	0.000000	0.000000
2.110000	-20.199627	239.654160	-27.981316	0.000049	0.002358	0.106751	0.000000	0.000000	0.000000	0.000000	0.000000	0.000000	0.009053	0.861637	-0.013733	0.000000	0.000000	0.000000
2.120000	-19.664577	236.395569	-28.806276	-0.000694	0.002364	0.104700	0.000000	0.000000	0.000000	0.000000	0.000000	0.000000	0.010862	1.033757	-0.016476	0.000000	0.000000	0.000000
2.130000	-19.231045	232.235672	-29.526182	-0.001502	0.002325	0.102705	0.000000	0.000000	0.000000	0.000000	0.000000	0.000000	0.012466	1.186452	-0.018909	0.000000	0.000000	0.000000
2.140000	-18.909203	226.964600	-29.988565	-0.002318	0.002229	0.100712	0.000000	0.000000	0.000000	0.000000	0.000000	0.000000	0.013818	1.315120	-0.020960	0.000000	0.000000	0.000000
2.150000	-18.704088	220.442352	-30.063826	-0.003104	0.002084	0.098693	0.000000	0.000000	0.000000	0.000000	0.000000	0.000000	0.014873	1.415592	-0.022561	0.000000	0.000000	0.000000
2.160000	-18.614546	212.600922	-29.649538	-0.003835	0.001916	0.096662	0.000000	0.000000	0.000000	0.000000	0.000000	0.000000	0.015588	1.483573	-0.023645	0.000000	0.000000	0.000000
2.170000	-18.630678	203.422882	-28.682245	-0.004484	0.001764	0.094658	-6.856454	25.069502	5.333652	-0.123027	-0.002953	-0.314340	0.015904	1.513634	-0.024124	0.000679	-1.621365	0.003858
2.180000	-18.728937	192.889206	-27.166063	-0.005019	0.001661	0.092744	-6.995929	45.323002	8.657350	-0.110919	-0.002774	-0.322529	0.015748	1.498799	-0.023887	0.000657	-1.568694	0.003733
2.190000	-18.863058	180.973267	-25.171427	-0.005393	0.001629	0.091014	-5.846483	72.217728	12.538127	-0.106228	-0.002637	-0.326012	0.015051	1.432494	-0.022831	0.000598	-1.426957	0.003395
2.200000	-18.955626	167.664368	-22.787903	-0.005540	0.001683	0.089596	-3.047915	104.756813	16.847578	-0.103745	-0.002603	-0.328790	0.013793	1.312752	-0.020922	0.000506	-1.207343	0.002873
2.210000	-18.899593	153.018738	-20.088617	-0.005380	0.001836	0.088636	1.214213	140.187164	21.646898	-0.101361	-0.002714	-0.332752	0.012051	1.146926	-0.018279	0.000390	-0.931837	0.002217
